<svg width="65" height="56" viewBox="0 0 65 56" fill="none" xmlns="http://www.w3.org/2000/svg">
<g clip-path="url(#clip0_1374_36)">
<path d="M36.3724 16.87L35.1553 15.87C34.9651 15.7043 34.7217 15.626 34.4782 15.6522C34.2346 15.6784 34.0106 15.807 33.8546 16.01L17.0107 36.83L17.2709 37.14L21.4424 33C21.3033 32.9398 21.1883 32.8291 21.1173 32.6871C21.0462 32.5451 21.0236 32.3807 21.0534 32.2227C21.0833 32.0646 21.1636 31.9227 21.2805 31.8218C21.3973 31.7208 21.5434 31.6671 21.6932 31.67C21.8283 31.67 21.9599 31.7166 22.0686 31.803C22.1773 31.8894 22.2574 32.011 22.2971 32.15L27.7971 26.66C27.8814 26.587 27.9863 26.5472 28.0944 26.5472C28.2026 26.5472 28.3075 26.587 28.3917 26.66L28.6704 26.88C28.7647 26.9528 28.8809 26.9849 28.9961 26.9701C29.1113 26.9553 29.2172 26.8946 29.2929 26.8L36.4838 18.12C36.5603 18.0339 36.6186 17.931 36.6548 17.8184C36.691 17.7058 36.7042 17.5862 36.6937 17.4676C36.6831 17.349 36.6489 17.2343 36.5935 17.1312C36.538 17.028 36.4626 16.939 36.3724 16.87V16.87Z" fill="#303030"/>
<path d="M44.2887 22.73C40.6027 25.553 36.4734 27.6364 32.0995 28.88C27.7584 30.0683 23.3163 30.7786 18.8418 31C18.9319 31.7102 19.0939 32.4077 19.3249 33.08C21.8519 35.54 40.8791 31.34 44.5953 26.48C45.385 25.47 44.2887 22.73 44.2887 22.73ZM21.694 33C21.5691 33 21.4469 32.9601 21.343 32.8854C21.2391 32.8107 21.1582 32.7045 21.1103 32.5802C21.0625 32.456 21.05 32.3192 21.0744 32.1873C21.0988 32.0554 21.1589 31.9342 21.2473 31.8391C21.3356 31.744 21.4482 31.6793 21.5708 31.653C21.6933 31.6268 21.8203 31.6403 21.9358 31.6917C22.0512 31.7432 22.1499 31.8304 22.2193 31.9422C22.2887 32.054 22.3258 32.1855 22.3258 32.32C22.327 32.4097 22.3115 32.4987 22.2802 32.5818C22.2489 32.6649 22.2024 32.7404 22.1435 32.8038C22.0846 32.8672 22.0145 32.9173 21.9372 32.951C21.86 32.9847 21.7773 33.0013 21.694 33V33Z" fill="#303030"/>
<path d="M3.71665 21.2899L3.8653 20.5999L6.28085 21.1899C6.48014 21.5861 6.60336 22.0214 6.64319 22.4699C6.6893 22.945 6.66103 23.425 6.55957 23.8899C6.43931 24.5352 6.1638 25.1352 5.76058 25.6299C5.37696 26.097 4.88232 26.4428 4.32983 26.6299C3.7604 26.8189 3.15476 26.8431 2.57391 26.6999C1.99178 26.5646 1.45519 26.2603 1.02238 25.8199C0.596187 25.3969 0.290152 24.8526 0.139769 24.2499C-0.0270584 23.5954 -0.0270584 22.9045 0.139769 22.2499C0.239622 21.76 0.418883 21.2929 0.669333 20.8699C0.906372 20.4853 1.22477 20.1665 1.59839 19.9399L1.93285 20.4899C1.61261 20.7016 1.33772 20.9839 1.12632 21.3183C0.914924 21.6527 0.771833 22.0316 0.706495 22.4299C0.59128 22.9473 0.600874 23.4877 0.734367 23.9999C0.859205 24.4863 1.10683 24.9259 1.44974 25.2699C1.80221 25.6367 2.24319 25.8896 2.72256 25.9999C3.18739 26.1404 3.67918 26.1404 4.14402 25.9999C4.5893 25.8417 4.98925 25.5628 5.30534 25.1899C5.63018 24.7873 5.85404 24.3019 5.95568 23.7799C6.10854 23.1468 6.06948 22.4776 5.8442 21.8699L3.71665 21.2899Z" fill="#303030"/>
<path d="M8.97456 15.0001L6.80985 18.1101L7.73891 19.9001L7.31154 20.5201L3.87402 13.7701L4.27352 13.1801L11.2693 14.8001L10.8327 15.4201L8.97456 15.0001ZM8.36138 14.8401L4.64514 13.9401L6.50326 17.5301L8.36138 14.8401Z" fill="#303030"/>
<path d="M8.36133 8.54998L8.91876 8.09998L12.4585 13.2L15.3757 10.85L15.7288 11.36L12.2634 14.15L8.36133 8.54998Z" fill="#303030"/>
<path d="M14.2148 4.37996L14.8373 4.07996L17.29 9.85996L20.6068 8.23996L20.8483 8.81996L16.9091 10.75L14.2148 4.37996Z" fill="#303030"/>
<path d="M26.46 6.68003L26.5993 7.31003L22.1213 8.44003L20.6348 1.62003L24.9828 0.530029L25.1128 1.15003L21.3966 2.08003L21.9262 4.50003L25.1965 3.67003L25.3358 4.29003L22.0562 5.11003L22.6137 7.64003L26.46 6.68003Z" fill="#303030"/>
<path d="M32.8421 6.92997L31.2906 4.72997C31.1173 4.74029 30.9436 4.74029 30.7703 4.72997L29.0237 4.78997L29.0887 7.00997H28.4012L28.1875 0.00996866L30.6588 -3.1339e-05C31.3575 -0.0694894 32.0563 0.132721 32.6284 0.569969C32.8695 0.778962 33.0634 1.04418 33.1954 1.3456C33.3273 1.64702 33.394 1.97678 33.3902 2.30997C33.4174 2.80416 33.2969 3.29473 33.0465 3.70997C32.7795 4.10853 32.4023 4.40603 31.9688 4.55997L33.5946 6.89997L32.8421 6.92997ZM32.1917 3.63997C32.3587 3.47531 32.4883 3.27154 32.5705 3.04439C32.6526 2.81725 32.6852 2.57281 32.6656 2.32997C32.6704 2.08584 32.6235 1.84374 32.5285 1.62198C32.4336 1.40022 32.293 1.20461 32.1174 1.04997C31.6892 0.737448 31.1743 0.592707 30.6588 0.639969L28.8936 0.709969L29.0051 4.20997L30.7331 4.14997C31.2601 4.17096 31.7769 3.99026 32.1917 3.63997V3.63997Z" fill="#303030"/>
<path d="M37.7561 5.07L37.4217 7.46L36.7435 7.35L37.0872 5L35.1641 0L35.8887 0.12L37.5332 4.38L40.3203 0.85L40.9707 1L37.7561 5.07Z" fill="#303030"/>
<path d="M46.9458 4.65005L47.7541 5.78005L47.4011 6.08005L46.5928 4.92005L46.0818 6.23005L45.6916 6.05005L46.2119 4.74005L44.874 4.93005V4.45005L46.1933 4.29005L45.3757 3.16005L45.738 2.86005L46.4534 4.00005L46.9551 2.68005L47.3546 2.86005L46.8808 4.20005L48.2186 4.00005V4.49005L46.9458 4.65005Z" fill="#303030"/>
<path d="M50.0489 12.71C49.8295 12.346 49.6927 11.9315 49.6494 11.5L50.1976 11.24C50.2387 11.6364 50.3591 12.0185 50.5506 12.36C50.7581 12.743 51.0289 13.0819 51.3496 13.36C51.6807 13.7013 52.1033 13.9217 52.5574 13.99C52.7214 14.0064 52.8867 13.9794 53.0389 13.9115C53.1911 13.8435 53.3256 13.7366 53.4307 13.6C53.5077 13.5085 53.5665 13.4009 53.6032 13.284C53.64 13.167 53.654 13.0431 53.6444 12.92C53.6136 12.6763 53.5378 12.4417 53.4214 12.23C53.2468 11.9231 53.0576 11.626 52.8547 11.34C52.6073 10.9912 52.3838 10.6236 52.1857 10.24C52.0344 9.95296 51.9514 9.63003 51.9442 9.30004C51.9435 8.92946 52.073 8.5723 52.3065 8.30004C52.509 8.03617 52.7761 7.83869 53.0776 7.73004C53.4145 7.62531 53.772 7.62531 54.1089 7.73004C54.5429 7.88282 54.9441 8.12763 55.2888 8.45004C55.5748 8.70611 55.8279 9.00205 56.0413 9.33004C56.2387 9.6342 56.3864 9.97239 56.478 10.33L55.9484 10.63C55.8561 10.2967 55.7183 9.97991 55.5397 9.69004C55.3617 9.43118 55.1523 9.19913 54.9172 9.00004C54.5909 8.66028 54.1697 8.44587 53.7187 8.39004C53.553 8.37512 53.3864 8.40478 53.2339 8.47635C53.0815 8.54792 52.948 8.65915 52.8454 8.80004C52.7664 8.89013 52.7064 8.99753 52.6695 9.11489C52.6326 9.23226 52.6197 9.35681 52.6317 9.48004C52.6534 9.73221 52.7298 9.97538 52.8547 10.19C52.9847 10.42 53.1706 10.72 53.4214 11.08C53.6701 11.4208 53.8937 11.7819 54.0903 12.16C54.2449 12.4462 54.3311 12.7692 54.3412 13.1C54.3418 13.4706 54.2124 13.8278 53.9788 14.1C53.7756 14.3675 53.5044 14.5656 53.1984 14.67C52.8622 14.7793 52.5034 14.7793 52.1672 14.67C51.7302 14.5177 51.3258 14.2729 50.978 13.95C50.6029 13.5987 50.2884 13.179 50.0489 12.71V12.71Z" fill="#303030"/>
<path d="M59.3941 14.17L58.0841 12.17L58.5672 11.8L61.5867 16.44L61.1036 16.81L59.7936 14.81L54.9439 18.46L54.5537 17.85L59.3941 14.17Z" fill="#303030"/>
<path d="M57.3141 22.39C57.48 21.7856 57.8022 21.2445 58.2432 20.83C58.6746 20.4141 59.2001 20.1279 59.7668 20C60.3446 19.8572 60.9472 19.8814 61.5135 20.07C62.0601 20.2645 62.55 20.6092 62.9349 21.07C63.3352 21.5656 63.6075 22.1656 63.7246 22.81C63.8785 23.4426 63.8785 24.1073 63.7246 24.74C63.5542 25.3421 63.2327 25.8819 62.7956 26.3C62.3523 26.727 61.8138 27.0233 61.2326 27.16C60.6514 27.2967 60.0472 27.2691 59.4788 27.08C58.9281 26.8949 58.4359 26.5487 58.0574 26.08C57.659 25.587 57.3868 24.9907 57.2677 24.35C57.1258 23.7033 57.1418 23.028 57.3141 22.39V22.39ZM58.5312 25.57C58.8414 25.9502 59.2433 26.2306 59.6925 26.38C60.1555 26.5245 60.6448 26.5417 61.1155 26.4298C61.5862 26.318 62.0233 26.0808 62.3868 25.74C62.7297 25.4004 62.9829 24.9691 63.1208 24.49C63.2503 23.9841 63.263 23.4517 63.1577 22.9393C63.0525 22.4269 62.8325 21.95 62.5169 21.55C62.193 21.1679 61.7787 20.8879 61.3184 20.74C60.8496 20.606 60.3564 20.606 59.8876 20.74C59.4146 20.8377 58.9767 21.0768 58.6241 21.43C58.278 21.7708 58.0244 22.2062 57.8901 22.69C57.764 23.1977 57.764 23.7322 57.8901 24.24C57.9919 24.7361 58.213 25.1947 58.5312 25.57V25.57Z" fill="#303030"/>
<path d="M56.6072 34L59.0134 33C59.0134 32.82 59.0692 32.64 59.1156 32.45L59.5709 30.64L57.6013 30.09L57.7778 29.38L64.0582 31.19L63.4265 33.72C63.2842 34.4582 62.9021 35.1177 62.3488 35.58C62.0945 35.7701 61.8029 35.8942 61.4967 35.9428C61.1904 35.9914 60.8779 35.963 60.5836 35.86C60.1352 35.7553 59.7335 35.4892 59.4446 35.1056C59.1558 34.722 58.9971 34.2438 58.9949 33.75L56.4307 34.75L56.6072 34ZM59.7195 34.28C59.8284 34.4925 59.976 34.6792 60.1536 34.8287C60.3311 34.9782 60.535 35.0876 60.7528 35.1502C60.9706 35.2128 61.1979 35.2273 61.4211 35.1929C61.6443 35.1585 61.8587 35.0759 62.0515 34.95C62.4615 34.5955 62.7414 34.0958 62.8412 33.54L63.2871 31.74L60.1376 30.83L59.6917 32.63C59.5203 33.1664 59.5301 33.7507 59.7195 34.28V34.28Z" fill="#303030"/>
<path d="M53.2726 40.44L52.7988 40.05L55.586 36.1L60.7702 40.33L58.0759 44.16L57.6021 43.77L59.8783 40.54L58.0201 39.03L55.9855 41.92L55.521 41.54L57.6021 38.65L55.6789 37.08L53.2726 40.44Z" fill="#303030"/>
<path d="M51.0991 48.41L49.7705 48.49V48.01L51.0991 48L50.3837 46.81L50.746 46.56L51.4521 47.76L52.0281 46.42L52.4276 46.65L51.7959 47.91L53.1244 47.83V48.32H51.7773L52.4927 49.51L52.1303 49.76L51.4242 48.56L50.8111 49.86L50.4209 49.62L51.0991 48.41Z" fill="#303030"/>
<path d="M39.0209 47.61L40.145 48.28C40.3335 47.8904 40.5965 47.5481 40.9168 47.2757C41.2371 47.0034 41.6073 46.8072 42.0031 46.7C42.3724 46.5761 42.7607 46.5319 43.1459 46.57C43.4801 46.5976 43.8011 46.722 44.0749 46.93C44.3225 47.1309 44.5046 47.4109 44.5952 47.73C44.7072 48.1248 44.6875 48.5493 44.5395 48.93C44.3063 49.4474 43.992 49.9176 43.6104 50.32C43.9167 50.4972 44.2008 50.7156 44.4558 50.97C44.631 51.1649 44.7615 51.4012 44.8368 51.66C44.8844 51.8618 44.8873 52.0728 44.8454 52.276C44.8034 52.4792 44.7177 52.669 44.5952 52.83C44.3472 53.2147 43.9771 53.4885 43.5547 53.6C43.1837 53.7523 42.7736 53.7523 42.4026 53.6C42.2377 53.5237 42.0914 53.4072 41.9753 53.2597C41.8593 53.1122 41.7766 52.9377 41.7337 52.75C41.6363 52.4199 41.6596 52.0623 41.7987 51.75C42.012 51.2954 42.2911 50.8802 42.6256 50.52L40.3866 49.18C40.3011 49.651 40.2823 50.1331 40.3308 50.61H39.7641C39.7259 50.0227 39.7889 49.4328 39.9499 48.87L38.7793 48.17L39.0209 47.61ZM40.6374 48.61L43.0994 50.08C43.4221 49.7484 43.6892 49.3593 43.8891 48.93C43.9912 48.6401 43.9912 48.32 43.8891 48.03C43.847 47.8568 43.7655 47.6975 43.652 47.5666C43.5384 47.4357 43.3965 47.3372 43.2388 47.28C42.8531 47.1398 42.4353 47.1398 42.0496 47.28C41.7344 47.3695 41.4413 47.5323 41.1909 47.7569C40.9405 47.9815 40.7389 48.2625 40.6003 48.58L40.6374 48.61ZM44.1307 52.61C44.1914 52.4995 44.2294 52.3763 44.2422 52.2487C44.2551 52.1211 44.2424 51.9919 44.205 51.87C44.1481 51.6726 44.0458 51.4937 43.9077 51.35C43.6712 51.1353 43.4125 50.9508 43.1366 50.8C42.8549 51.0998 42.6084 51.4357 42.4026 51.8C42.2903 52.0272 42.2637 52.2923 42.3283 52.54C42.3578 52.6545 42.4094 52.7609 42.4799 52.8522C42.5504 52.9436 42.638 53.0178 42.7371 53.07C42.9736 53.166 43.2345 53.166 43.471 53.07C43.7236 52.9975 43.9442 52.831 44.0935 52.6L44.1307 52.61Z" fill="#303030"/>
<path d="M27.6953 55.3199L27.8254 48.3199H28.485L28.3828 53.9199L31.0213 49.2599H31.3465L33.8178 53.9999L33.9107 48.4299H34.5704L34.4496 55.4299H33.8829L31.1514 50.1999L28.262 55.3299L27.6953 55.3199Z" fill="#303030"/>
<path d="M24.4626 48C24.8875 48.4358 25.1915 48.9901 25.3408 49.601C25.49 50.212 25.4787 50.8556 25.3081 51.46C25.1554 52.0789 24.8505 52.642 24.4254 53.09C24.0124 53.527 23.4945 53.8317 22.9297 53.97C22.3338 54.1147 21.7137 54.094 21.1273 53.91C20.5429 53.7564 20.0053 53.4429 19.5665 53C19.1479 52.5697 18.8488 52.0227 18.7024 51.42C18.5596 50.7969 18.5701 50.1446 18.733 49.5273C18.896 48.91 19.2056 48.3491 19.6315 47.9C20.0372 47.4641 20.5441 47.1533 21.0994 47C21.6921 46.8557 22.3092 46.8763 22.8925 47.06C23.4829 47.221 24.0241 47.545 24.4626 48V48ZM21.2945 47.65C20.8401 47.7639 20.4247 48.0134 20.096 48.37C19.7538 48.7369 19.5099 49.1963 19.3899 49.7C19.2604 50.2004 19.2604 50.7295 19.3899 51.23C19.4995 51.7169 19.7346 52.1606 20.0682 52.51C20.418 52.8782 20.8499 53.1433 21.3224 53.28C21.7949 53.4095 22.29 53.4095 22.7624 53.28C23.2173 53.1596 23.6341 52.9111 23.9702 52.56C24.3106 52.1916 24.5543 51.7327 24.6763 51.23C24.8062 50.7262 24.8062 50.1938 24.6763 49.69C24.5574 49.2049 24.32 48.7629 23.9888 48.41C23.6371 48.0413 23.2013 47.7791 22.7253 47.65C22.2571 47.5107 21.7627 47.5107 21.2945 47.65V47.65Z" fill="#303030"/>
<path d="M14.2605 43L14.5113 45.75C14.6707 45.8233 14.8258 45.9068 14.9758 46L16.4902 46.94L17.5122 45L18.1161 45.37L14.8643 51.4L12.7461 50.09C12.12 49.7515 11.6261 49.1844 11.3525 48.49C11.2515 48.1772 11.2174 47.8439 11.2528 47.5149C11.2882 47.1859 11.3922 46.8698 11.5569 46.59C11.7728 46.1518 12.1152 45.8008 12.5324 45.59C12.9561 45.4011 13.4248 45.3626 13.8703 45.48L13.6008 42.54L14.2605 43ZM13.2013 46.16C12.9831 46.219 12.7782 46.3247 12.5988 46.4708C12.4195 46.617 12.2693 46.8006 12.1575 47.0107C12.0456 47.2207 11.9742 47.4529 11.9476 47.6934C11.9211 47.9338 11.9398 48.1776 12.0028 48.41C12.2206 48.9276 12.5981 49.3481 13.0713 49.6L14.567 50.53L16.1929 47.53L14.6971 46.6C14.2672 46.2533 13.7378 46.0799 13.2013 46.11V46.16Z" fill="#303030"/>
<path d="M8.76124 38.31L9.17932 37.86L12.3846 41.41L7.73928 46.29L4.64551 42.85L5.07288 42.4L7.70211 45.31L9.29081 43.58L6.98674 41L7.43269 40.54L9.78321 43.14L11.5113 41.33L8.76124 38.31Z" fill="#303030"/>
<path d="M1.85862 34.38L2.08159 33L2.51825 33.07L2.26741 34.49L3.50305 34L3.6517 34.44L2.39747 34.9L3.42873 35.84L3.13143 36.2L2.13734 35.2L1.90507 36.62L1.45912 36.53L1.71926 35.11L0.47432 35.59L0.334961 35.2L1.5799 34.73L0.548645 33.8L0.855234 33.44L1.85862 34.38Z" fill="#303030"/>
</g>
<defs>
<clipPath id="clip0_1374_36">
<rect width="64.0401" height="55.46" fill="white"/>
</clipPath>
</defs>
</svg>
